<svg xmlns="http://www.w3.org/2000/svg" xmlns:xlink="http://www.w3.org/1999/xlink" id="Capa_1" x="0" y="0" version="1.1" viewBox="0 0 62.4 62.4" xml:space="preserve" style="enable-background:new 0 0 62.4 62.4"><style type="text/css">.st0{fill:#fff}</style><g><path d="M25.3,33.1H6.7c-2.1,0-3.9,1.7-3.9,3.9v18.6c0,2.1,1.7,3.9,3.9,3.9h18.6c2.1,0,3.9-1.7,3.9-3.9V37 C29.2,34.8,27.4,33.1,25.3,33.1z M26.1,37.1v18.1c0,0.7-0.6,1.3-1.3,1.3H7.4c-0.9-0.1-1.5-0.7-1.5-1.6V37.5c0-0.9,0.7-1.6,1.6-1.6 h17.4C25.6,35.8,26.1,36.4,26.1,37.1z" class="st0"/><path d="M58.5,45.1H47.7V34.2c0-0.6-0.8-1-1.3-1s-1.3,0.4-1.3,1v10.8H34.2c-0.6,0-1,0.8-1,1.3s0.4,1.3,1,1.3h10.8v10.8 c0,0.6,0.8,1,1.3,1s1.3-0.4,1.3-1V47.7h10.8c0.6,0,1-0.8,1-1.3S59.1,45.1,58.5,45.1z" class="st0"/></g><path d="M25.3,2.8H6.7c-2.1,0-3.9,1.7-3.9,3.9v18.6c0,2.1,1.7,3.9,3.9,3.9h18.6c2.1,0,3.9-1.7,3.9-3.9V6.7	C29.2,4.6,27.4,2.8,25.3,2.8z M26.1,6.8v18.1c0,0.7-0.6,1.3-1.3,1.3H7.4c-0.9-0.1-1.5-0.7-1.5-1.6V7.2c0-0.9,0.7-1.6,1.6-1.6h17.4	C25.6,5.6,26.1,6.1,26.1,6.8z M55.7,2.8H37.1c-2.1,0-3.9,1.7-3.9,3.9v18.6c0,2.1,1.7,3.9,3.9,3.9h18.6c2.1,0,3.9-1.7,3.9-3.9V6.7	C59.5,4.6,57.8,2.8,55.7,2.8z M56.5,6.8v18.1c0,0.7-0.6,1.3-1.3,1.3H37.8c-0.9-0.1-1.5-0.7-1.5-1.6V7.2c0-0.9,0.7-1.6,1.6-1.6h17.4	C55.9,5.6,56.5,6.1,56.5,6.8z" class="st0"/></svg>