<svg xmlns="http://www.w3.org/2000/svg" xmlns:xlink="http://www.w3.org/1999/xlink" id="Capa_1" x="0" y="0" version="1.1" viewBox="0 0 612 612" xml:space="preserve" style="enable-background:new 0 0 612 612"><style type="text/css">.st0{fill:#fff}</style><g><g id="_x38__3_"><g><path d="M306,11.3C137,11.3,11.3,137,11.3,306S137,600.7,306,600.7S600.7,475,600.7,306S475,11.3,306,11.3z M306,573.8C158.1,573.8,38.3,453.9,38.3,306S158.1,38.2,306,38.2S573.8,158.1,573.8,306S453.9,573.8,306,573.8z M420.8,292.5 H319.5V191.2c0-10.6-2.9-19.1-13.5-19.1s-13.5,8.6-13.5,19.1v101.3H191.3c-10.6,0-19.1,2.9-19.1,13.5s8.6,13.5,19.1,13.5h101.3 v101.3c0,10.6,2.9,19.1,13.5,19.1s13.5-8.6,13.5-19.1V319.5h101.3c10.6,0,19.1-2.9,19.1-13.5S431.3,292.5,420.8,292.5z" class="st0"/></g></g></g></svg>